<?xml version="1.0" encoding="UTF-8"?> <svg xmlns="http://www.w3.org/2000/svg" id="Layer_2" data-name="Layer 2" viewBox="0 0 883.13 272.1"><g id="Layer_3" data-name="Layer 3"><g><path d="M140.65,122.1c-9.26,0-17.76-1.53-25.5-4.58-7.74-3.05-14.47-7.3-20.19-12.75-5.72-5.45-10.13-11.9-13.24-19.37-3.11-7.46-4.66-15.61-4.66-24.44s1.55-16.94,4.66-24.35c3.11-7.41,7.52-13.84,13.24-19.29,5.72-5.45,12.45-9.7,20.19-12.75,7.74-3.05,16.24-4.58,25.5-4.58s17.76,1.53,25.5,4.58c7.74,3.05,14.47,7.3,20.19,12.75,5.72,5.45,10.13,11.88,13.24,19.29,3.11,7.41,4.66,15.53,4.66,24.35s-1.55,16.97-4.66,24.44c-3.11,7.46-7.52,13.92-13.24,19.37-5.72,5.45-12.45,9.7-20.19,12.75-7.74,3.05-16.24,4.58-25.5,4.58ZM140.65,97.42c6.76,0,12.67-1.55,17.73-4.66,5.07-3.11,9.04-7.41,11.93-12.91,2.89-5.5,4.33-11.79,4.33-18.88s-1.45-13.35-4.33-18.8c-2.89-5.45-6.87-9.73-11.93-12.83-5.07-3.11-10.98-4.66-17.73-4.66s-12.53,1.55-17.65,4.66c-5.12,3.11-9.13,7.38-12.01,12.83-2.89,5.45-4.33,11.71-4.33,18.8s1.44,13.38,4.33,18.88c2.89,5.5,6.89,9.81,12.01,12.91,5.12,3.11,11.01,4.66,17.65,4.66Z"></path><path d="M235.29,119.49h-33.18l45.28-63.91v6.7L206.03,2.62h33.34l25.17,39.39h-4.25l25.17-39.39h33.02l-40.86,59.66v-6.7l45.11,63.91h-33.34l-29.26-43.97h4.58l-29.42,43.97Z"></path><path d="M362.62,119.49h-28.11V2.62h82.05v23.37h-53.94v93.5ZM413.45,72.41h-52.47v-23.37h52.47v23.37Z"></path><path d="M493.87,122.1c-9.26,0-17.76-1.53-25.5-4.58-7.74-3.05-14.47-7.3-20.19-12.75-5.72-5.45-10.13-11.9-13.24-19.37-3.11-7.46-4.66-15.61-4.66-24.44s1.55-16.94,4.66-24.35c3.11-7.41,7.52-13.84,13.24-19.29,5.72-5.45,12.45-9.7,20.19-12.75,7.74-3.05,16.24-4.58,25.5-4.58s17.76,1.53,25.5,4.58c7.74,3.05,14.47,7.3,20.19,12.75,5.72,5.45,10.13,11.88,13.24,19.29,3.11,7.41,4.66,15.53,4.66,24.35s-1.55,16.97-4.66,24.44c-3.11,7.46-7.52,13.92-13.24,19.37-5.72,5.45-12.45,9.7-20.19,12.75-7.74,3.05-16.24,4.58-25.5,4.58ZM493.87,97.42c6.76,0,12.67-1.55,17.73-4.66,5.07-3.11,9.04-7.41,11.93-12.91,2.89-5.5,4.33-11.79,4.33-18.88s-1.45-13.35-4.33-18.8c-2.89-5.45-6.87-9.73-11.93-12.83-5.07-3.11-10.98-4.66-17.73-4.66s-12.53,1.55-17.65,4.66c-5.12,3.11-9.13,7.38-12.01,12.83-2.89,5.45-4.33,11.71-4.33,18.8s1.44,13.38,4.33,18.88c2.89,5.5,6.89,9.81,12.01,12.91,5.12,3.11,11.01,4.66,17.65,4.66Z"></path><path d="M603.39,119.49h-28.11V2.62h48.87c8.72,0,16.4,1.58,23.05,4.74,6.65,3.16,11.82,7.55,15.53,13.16,3.7,5.61,5.56,12.18,5.56,19.7s-1.85,13.95-5.56,19.61c-3.71,5.67-8.88,10.08-15.53,13.24-6.65,3.16-14.33,4.74-23.05,4.74h-22.39v-23.37h22.39c4.79,0,8.61-1.28,11.44-3.84,2.83-2.56,4.25-6.02,4.25-10.38s-1.42-7.82-4.25-10.38c-2.83-2.56-6.65-3.84-11.44-3.84h-20.76v93.5ZM680.7,119.49h-34l-39.07-54.43h32.04l41.03,54.43Z"></path><path d="M693.28,119.49V2.62h42.83c12.97,0,24.27,2.48,33.92,7.44,9.64,4.96,17.13,11.83,22.47,20.6,5.34,8.77,8.01,18.88,8.01,30.32s-2.67,21.55-8.01,30.32c-5.34,8.77-12.83,15.67-22.47,20.68-9.64,5.01-20.95,7.52-33.92,7.52h-42.83ZM721.4,96.11h14.71c7.19,0,13.38-1.44,18.55-4.33,5.17-2.89,9.18-6.95,12.01-12.18,2.83-5.23,4.25-11.44,4.25-18.63s-1.42-13.4-4.25-18.63c-2.83-5.23-6.84-9.26-12.01-12.1-5.18-2.83-11.36-4.25-18.55-4.25h-14.71v70.12Z"></path><path d="M15.69,269.49H0v-116.87h46.09c7.95,0,14.87,1.42,20.76,4.25,5.88,2.84,10.49,6.76,13.81,11.77,3.32,5.01,4.99,10.9,4.99,17.65s-1.66,12.64-4.99,17.65c-3.33,5.01-7.93,8.94-13.81,11.77-5.88,2.84-12.81,4.25-20.76,4.25H14.06v-13.57h32.04c7.3,0,13.05-1.77,17.24-5.31,4.19-3.54,6.29-8.47,6.29-14.79s-2.1-11.25-6.29-14.79c-4.2-3.54-9.95-5.31-17.24-5.31H15.69v103.3ZM97.26,269.49h-19.78l-43.81-54.43h18.31l45.28,54.43Z"></path><path d="M192.38,269.49h-78.95v-116.87h78.95v13.57h-63.26v89.74h63.26v13.57ZM189.28,216.69h-61.79v-13.57h61.79v13.57Z"></path><path d="M205.62,250.52l11.11-10.79c3.16,3.82,6.81,7.08,10.95,9.81,4.14,2.72,8.61,4.85,13.4,6.37,4.79,1.53,9.86,2.29,15.2,2.29,5.99,0,11.28-.9,15.85-2.7s8.17-4.28,10.79-7.44c2.62-3.16,3.92-6.86,3.92-11.11,0-5.56-2.43-9.94-7.27-13.16-4.85-3.21-13.16-5.69-24.93-7.44-10.68-1.63-19.23-3.81-25.66-6.54-6.43-2.72-11.11-6.18-14.06-10.38-2.94-4.19-4.41-9.18-4.41-14.96,0-6.76,1.91-12.75,5.72-17.98,3.81-5.23,9.07-9.29,15.77-12.18,6.7-2.89,14.36-4.33,22.97-4.33,9.91,0,18.72,1.94,26.4,5.8,7.68,3.87,14.41,9.13,20.19,15.77l-10.95,10.62c-4.47-5.56-9.54-10-15.2-13.32-5.67-3.32-12.48-4.99-20.43-4.99s-15.07,1.83-20.35,5.48c-5.29,3.65-7.93,8.53-7.93,14.63,0,3.16.98,5.86,2.94,8.09,1.96,2.24,5.17,4.12,9.64,5.64,4.47,1.53,10.46,2.89,17.98,4.09,10.9,1.53,19.7,3.79,26.4,6.78,6.7,3,11.61,6.78,14.71,11.36,3.11,4.58,4.66,10.08,4.66,16.51,0,7.08-1.99,13.29-5.97,18.63-3.98,5.34-9.48,9.51-16.51,12.5-7.03,3-15.12,4.5-24.27,4.5-10.79,0-20.38-1.94-28.77-5.8-8.39-3.87-15.69-9.12-21.9-15.77Z"></path><path d="M340.47,269.49h-15.69v-116.87h46.09c7.95,0,14.87,1.42,20.76,4.25,5.88,2.84,10.49,6.76,13.81,11.77,3.32,5.01,4.99,10.9,4.99,17.65s-1.66,12.64-4.99,17.65c-3.33,5.01-7.93,8.94-13.81,11.77-5.88,2.84-12.81,4.25-20.76,4.25h-32.04v-13.57h32.04c7.3,0,13.05-1.77,17.24-5.31,4.19-3.54,6.29-8.47,6.29-14.79s-2.1-11.25-6.29-14.79c-4.2-3.54-9.95-5.31-17.24-5.31h-30.4v103.3Z"></path><path d="M487.58,272.1c-8.83,0-16.95-1.53-24.35-4.58-7.41-3.05-13.89-7.33-19.45-12.83-5.56-5.5-9.86-11.99-12.91-19.45-3.05-7.46-4.58-15.55-4.58-24.27s1.52-16.78,4.58-24.19c3.05-7.41,7.36-13.87,12.91-19.37,5.56-5.5,12.04-9.78,19.45-12.83,7.41-3.05,15.53-4.58,24.35-4.58s16.94,1.53,24.35,4.58c7.41,3.05,13.89,7.33,19.45,12.83,5.56,5.5,9.86,11.96,12.91,19.37,3.05,7.41,4.58,15.47,4.58,24.19s-1.53,16.81-4.58,24.27c-3.05,7.46-7.36,13.95-12.91,19.45-5.56,5.5-12.04,9.78-19.45,12.83-7.41,3.05-15.53,4.58-24.35,4.58ZM487.58,258.04c8.83,0,16.62-2.01,23.37-6.05,6.75-4.03,12.01-9.62,15.77-16.75,3.76-7.14,5.64-15.23,5.64-24.27s-1.88-17.11-5.64-24.19c-3.76-7.08-9.02-12.64-15.77-16.67-6.76-4.03-14.55-6.05-23.37-6.05s-16.48,2.02-23.29,6.05c-6.81,4.03-12.1,9.59-15.85,16.67-3.76,7.09-5.64,15.15-5.64,24.19s1.88,17.14,5.64,24.27c3.76,7.14,9.04,12.72,15.85,16.75,6.81,4.03,14.57,6.05,23.29,6.05Z"></path><path d="M585.65,269.49h-15.2v-116.87h16.84l68.32,100.69h-4.41v-100.69h15.2v116.87h-16.84l-68.49-100.69h4.58v100.69Z"></path><path d="M685.03,250.52l11.11-10.79c3.16,3.82,6.81,7.08,10.95,9.81,4.14,2.72,8.61,4.85,13.4,6.37,4.79,1.53,9.86,2.29,15.2,2.29,5.99,0,11.28-.9,15.86-2.7,4.58-1.8,8.17-4.28,10.79-7.44,2.62-3.16,3.92-6.86,3.92-11.11,0-5.56-2.43-9.94-7.27-13.16-4.85-3.21-13.16-5.69-24.93-7.44-10.68-1.63-19.23-3.81-25.66-6.54-6.43-2.72-11.12-6.18-14.06-10.38-2.94-4.19-4.41-9.18-4.41-14.96,0-6.76,1.91-12.75,5.72-17.98,3.81-5.23,9.07-9.29,15.77-12.18,6.7-2.89,14.36-4.33,22.97-4.33,9.92,0,18.72,1.94,26.4,5.8,7.68,3.87,14.41,9.13,20.19,15.77l-10.95,10.62c-4.47-5.56-9.54-10-15.2-13.32-5.67-3.32-12.48-4.99-20.43-4.99s-15.07,1.83-20.35,5.48c-5.29,3.65-7.93,8.53-7.93,14.63,0,3.16.98,5.86,2.94,8.09,1.96,2.24,5.17,4.12,9.64,5.64,4.47,1.53,10.46,2.89,17.98,4.09,10.89,1.53,19.7,3.79,26.4,6.78,6.7,3,11.61,6.78,14.71,11.36,3.11,4.58,4.66,10.08,4.66,16.51,0,7.08-1.99,13.29-5.97,18.63-3.98,5.34-9.48,9.51-16.51,12.5-7.03,3-15.12,4.5-24.27,4.5-10.79,0-20.38-1.94-28.77-5.8-8.39-3.87-15.69-9.12-21.9-15.77Z"></path><path d="M883.13,269.49h-78.95v-116.87h78.95v13.57h-63.26v89.74h63.26v13.57ZM880.03,216.69h-61.79v-13.57h61.79v13.57Z"></path></g></g></svg> 